<svg width="187" height="26" viewBox="0 0 187 26" fill="none" xmlns="http://www.w3.org/2000/svg">
<path d="M0.792 25V24.64L1.548 24.352C2.028 24.184 2.34 23.956 2.484 23.668C2.628 23.38 2.7 23.008 2.7 22.552V3.724C2.7 3.244 2.628 2.86 2.484 2.572C2.34 2.284 2.028 2.056 1.548 1.888L0.792 1.6V1.24H9.756V1.6L8.964 1.924C8.556 2.068 8.28 2.284 8.136 2.572C7.992 2.86 7.92 3.256 7.92 3.76V22.588C7.92 23.068 7.992 23.44 8.136 23.704C8.304 23.968 8.616 24.184 9.072 24.352L9.756 24.64V25H0.792ZM14.076 25V24.64L14.544 24.496C15.024 24.352 15.276 24.112 15.3 23.776C15.324 23.44 15.18 23.056 14.868 22.624L7.956 12.796L17.064 3.508C17.4 3.172 17.58 2.848 17.604 2.536C17.652 2.224 17.424 1.984 16.92 1.816L16.308 1.6V1.24H21.564V1.6L20.628 1.888C20.1 2.056 19.68 2.26 19.368 2.5C19.056 2.74 18.696 3.064 18.288 3.472L11.844 10.06L20.304 22.408C20.664 22.936 21 23.368 21.312 23.704C21.648 24.04 22.116 24.304 22.716 24.496L23.22 24.64V25H14.076ZM24.1943 25V24.64L25.0942 24.316C25.5743 24.124 25.9463 23.896 26.2103 23.632C26.4743 23.344 26.6903 22.948 26.8583 22.444L34.2743 1.168H37.3343L44.6423 22.588C44.8343 23.116 45.0503 23.524 45.2903 23.812C45.5303 24.076 45.9023 24.304 46.4062 24.496L46.8383 24.64V25H37.6943V24.64L38.2343 24.46C38.7383 24.268 39.0383 24.004 39.1343 23.668C39.2543 23.308 39.2423 22.888 39.0983 22.408L37.4063 17.224H29.4143L27.6863 22.3C27.5183 22.828 27.4583 23.248 27.5063 23.56C27.5783 23.872 27.8663 24.124 28.3703 24.316L29.1623 24.64V25H24.1943ZM29.6663 16.504H37.1903L33.5543 5.308L29.6663 16.504ZM47.9717 25V24.64L48.7277 24.352C49.2077 24.184 49.5197 23.956 49.6637 23.668C49.8077 23.38 49.8797 23.008 49.8797 22.552V3.724C49.8797 3.244 49.8077 2.86 49.6637 2.572C49.5197 2.284 49.2077 2.056 48.7277 1.888L47.9717 1.6V1.24H56.9357V1.6L56.1437 1.924C55.7357 2.068 55.4597 2.284 55.3157 2.572C55.1717 2.86 55.0997 3.256 55.0997 3.76V22.588C55.0997 23.068 55.1717 23.44 55.3157 23.704C55.4837 23.968 55.7957 24.184 56.2517 24.352L56.9357 24.64V25H47.9717ZM61.2557 25V24.64L61.7237 24.496C62.2037 24.352 62.4557 24.112 62.4797 23.776C62.5037 23.44 62.3597 23.056 62.0477 22.624L55.1357 12.796L64.2437 3.508C64.5797 3.172 64.7597 2.848 64.7837 2.536C64.8317 2.224 64.6037 1.984 64.0997 1.816L63.4877 1.6V1.24H68.7437V1.6L67.8077 1.888C67.2797 2.056 66.8597 2.26 66.5477 2.5C66.2357 2.74 65.8757 3.064 65.4677 3.472L59.0237 10.06L67.4837 22.408C67.8437 22.936 68.1797 23.368 68.4917 23.704C68.8277 24.04 69.2957 24.304 69.8957 24.496L70.3997 24.64V25H61.2557Z" fill="#2B2B2B" fill-opacity="0.75"/>
<path d="M71.5264 25V24.64L72.1744 24.388C72.6544 24.196 72.9784 23.956 73.1464 23.668C73.3384 23.38 73.4344 22.996 73.4344 22.516V3.724C73.4344 3.22 73.3384 2.824 73.1464 2.536C72.9784 2.248 72.6544 2.02 72.1744 1.852L71.5264 1.6V1.24H81.8584C84.7864 1.24 86.8984 1.78 88.1944 2.86C89.4904 3.916 90.1384 5.26 90.1384 6.892C90.1384 8.116 89.6584 9.232 88.6984 10.24C87.7624 11.224 86.1424 11.92 83.8384 12.328C86.4784 12.616 88.4104 13.312 89.6344 14.416C90.8584 15.496 91.4704 16.816 91.4704 18.376C91.4704 19.144 91.3024 19.924 90.9664 20.716C90.6304 21.484 90.0544 22.192 89.2384 22.84C88.4464 23.488 87.3544 24.016 85.9624 24.424C84.5704 24.808 82.8064 25 80.6704 25H71.5264ZM78.7624 12.292H80.3104C81.9184 12.292 83.0704 11.92 83.7664 11.176C84.4864 10.432 84.8464 9.136 84.8464 7.288C84.8464 5.368 84.5224 4 83.8744 3.184C83.2264 2.368 82.1704 1.96 80.7064 1.96H78.7624V12.292ZM78.7624 24.28H80.5624C82.3624 24.28 83.6944 23.8 84.5584 22.84C85.4464 21.88 85.8904 20.38 85.8904 18.34C85.8904 16.42 85.4704 15.052 84.6304 14.236C83.7904 13.42 82.4104 13.012 80.4904 13.012H78.7624V24.28ZM104.169 25.648C102.705 25.648 101.289 25.384 99.9214 24.856C98.5774 24.328 97.3654 23.548 96.2854 22.516C95.2294 21.46 94.3894 20.152 93.7654 18.592C93.1414 17.032 92.8294 15.208 92.8294 13.12C92.8294 11.056 93.1414 9.244 93.7654 7.684C94.3894 6.124 95.2414 4.828 96.3214 3.796C97.4014 2.74 98.6134 1.948 99.9574 1.42C101.325 0.867999 102.729 0.591999 104.169 0.591999C105.633 0.591999 107.037 0.855999 108.381 1.384C109.749 1.888 110.961 2.668 112.017 3.724C113.097 4.756 113.949 6.064 114.573 7.648C115.197 9.208 115.509 11.032 115.509 13.12C115.509 15.16 115.197 16.972 114.573 18.556C113.949 20.116 113.097 21.424 112.017 22.48C110.961 23.512 109.749 24.304 108.381 24.856C107.037 25.384 105.633 25.648 104.169 25.648ZM104.169 24.892C105.489 24.892 106.557 24.544 107.373 23.848C108.189 23.128 108.777 21.916 109.137 20.212C109.521 18.484 109.713 16.12 109.713 13.12C109.713 10.096 109.521 7.732 109.137 6.028C108.777 4.3 108.189 3.088 107.373 2.392C106.557 1.672 105.489 1.312 104.169 1.312C102.873 1.312 101.817 1.672 101.001 2.392C100.185 3.088 99.5854 4.3 99.2014 6.028C98.8414 7.732 98.6614 10.096 98.6614 13.12C98.6614 16.12 98.8414 18.484 99.2014 20.212C99.5854 21.916 100.185 23.128 101.001 23.848C101.817 24.544 102.873 24.892 104.169 24.892ZM116.421 25V24.64L117.141 24.352C117.621 24.184 117.933 23.956 118.077 23.668C118.245 23.38 118.329 23.008 118.329 22.552V3.724C118.329 3.244 118.245 2.86 118.077 2.572C117.933 2.284 117.621 2.056 117.141 1.888L116.421 1.6V1.24H125.565V1.6L124.953 1.852C124.497 2.02 124.185 2.248 124.017 2.536C123.849 2.8 123.765 3.172 123.765 3.652V12.4H132.369V3.652C132.369 3.172 132.285 2.8 132.117 2.536C131.973 2.248 131.661 2.02 131.181 1.852L130.533 1.6V1.24H139.713V1.6L138.993 1.888C138.537 2.056 138.225 2.284 138.057 2.572C137.889 2.86 137.805 3.244 137.805 3.724V22.552C137.805 23.008 137.889 23.38 138.057 23.668C138.225 23.956 138.537 24.184 138.993 24.352L139.713 24.64V25H130.533V24.64L131.181 24.424C131.661 24.232 131.973 24.004 132.117 23.74C132.285 23.452 132.369 23.068 132.369 22.588V13.12H123.765V22.588C123.765 23.476 124.161 24.088 124.953 24.424L125.565 24.64V25H116.421ZM151.982 25.648C150.518 25.648 149.102 25.384 147.734 24.856C146.39 24.328 145.178 23.548 144.098 22.516C143.042 21.46 142.202 20.152 141.578 18.592C140.954 17.032 140.642 15.208 140.642 13.12C140.642 11.056 140.954 9.244 141.578 7.684C142.202 6.124 143.054 4.828 144.134 3.796C145.214 2.74 146.426 1.948 147.77 1.42C149.138 0.867999 150.542 0.591999 151.982 0.591999C153.446 0.591999 154.85 0.855999 156.194 1.384C157.562 1.888 158.774 2.668 159.83 3.724C160.91 4.756 161.762 6.064 162.386 7.648C163.01 9.208 163.322 11.032 163.322 13.12C163.322 15.16 163.01 16.972 162.386 18.556C161.762 20.116 160.91 21.424 159.83 22.48C158.774 23.512 157.562 24.304 156.194 24.856C154.85 25.384 153.446 25.648 151.982 25.648ZM151.982 24.892C153.302 24.892 154.37 24.544 155.186 23.848C156.002 23.128 156.59 21.916 156.95 20.212C157.334 18.484 157.526 16.12 157.526 13.12C157.526 10.096 157.334 7.732 156.95 6.028C156.59 4.3 156.002 3.088 155.186 2.392C154.37 1.672 153.302 1.312 151.982 1.312C150.686 1.312 149.63 1.672 148.814 2.392C147.998 3.088 147.398 4.3 147.014 6.028C146.654 7.732 146.474 10.096 146.474 13.12C146.474 16.12 146.654 18.484 147.014 20.212C147.398 21.916 147.998 23.128 148.814 23.848C149.63 24.544 150.686 24.892 151.982 24.892ZM164.233 25V24.64L164.989 24.352C165.469 24.184 165.781 23.956 165.925 23.668C166.069 23.38 166.141 23.008 166.141 22.552V3.724C166.141 3.244 166.069 2.86 165.925 2.572C165.781 2.284 165.469 2.056 164.989 1.888L164.233 1.6V1.24H173.197V1.6L172.405 1.924C171.997 2.068 171.721 2.284 171.577 2.572C171.433 2.86 171.361 3.256 171.361 3.76V22.588C171.361 23.068 171.433 23.44 171.577 23.704C171.745 23.968 172.057 24.184 172.513 24.352L173.197 24.64V25H164.233ZM177.517 25V24.64L177.985 24.496C178.465 24.352 178.717 24.112 178.741 23.776C178.765 23.44 178.621 23.056 178.309 22.624L171.397 12.796L180.505 3.508C180.841 3.172 181.021 2.848 181.045 2.536C181.093 2.224 180.865 1.984 180.361 1.816L179.749 1.6V1.24H185.005V1.6L184.069 1.888C183.541 2.056 183.121 2.26 182.809 2.5C182.497 2.74 182.137 3.064 181.729 3.472L175.285 10.06L183.745 22.408C184.105 22.936 184.441 23.368 184.753 23.704C185.089 24.04 185.557 24.304 186.157 24.496L186.661 24.64V25H177.517Z" fill="#2B2B2B"/>
</svg>
