<svg width="175" height="175" viewBox="0 0 175 175" fill="none" xmlns="http://www.w3.org/2000/svg">
<rect width="175" height="175" rx="10" fill="#FFFDFD"/>
<path d="M51.816 132V130.72L54.12 129.824C55.8267 129.141 56.9787 128.288 57.576 127.264C58.2587 126.24 58.6 124.875 58.6 123.168V56.352C58.6 54.56 58.2587 53.152 57.576 52.128C56.9787 51.104 55.8267 50.2933 54.12 49.696L51.816 48.8V47.52H88.552C98.9627 47.52 106.472 49.44 111.08 53.28C115.688 57.0347 117.992 61.8133 117.992 67.616C117.992 71.968 116.285 75.936 112.872 79.52C109.544 83.0187 103.784 85.4933 95.592 86.944C104.979 87.968 111.848 90.4427 116.2 94.368C120.552 98.208 122.728 102.901 122.728 108.448C122.728 111.179 122.131 113.952 120.936 116.768C119.741 119.499 117.693 122.016 114.792 124.32C111.976 126.624 108.093 128.501 103.144 129.952C98.1947 131.317 91.9227 132 84.328 132H51.816ZM77.544 86.816H83.048C88.7653 86.816 92.8613 85.4933 95.336 82.848C97.896 80.2027 99.176 75.5947 99.176 69.024C99.176 62.1973 98.024 57.3333 95.72 54.432C93.416 51.5307 89.6613 50.08 84.456 50.08H77.544V86.816ZM77.544 129.44H83.944C90.344 129.44 95.08 127.733 98.152 124.32C101.309 120.907 102.888 115.573 102.888 108.32C102.888 101.493 101.395 96.6293 98.408 93.728C95.4213 90.8267 90.5147 89.376 83.688 89.376H77.544V129.44Z" fill="#2B2B2B"/>
</svg>
