<svg width="120" height="28" viewBox="0 0 317 73" fill="none" xmlns="http://www.w3.org/2000/svg">
<path d="M0.86377 70.512V69.472L2.73576 68.744C4.12243 68.1893 5.05843 67.496 5.54376 66.664C6.09843 65.832 6.37576 64.7227 6.37576 63.336V9.048C6.37576 7.592 6.09843 6.448 5.54376 5.616C5.05843 4.784 4.12243 4.12533 2.73576 3.64L0.86377 2.912V1.872H30.7118C39.1704 1.872 45.2718 3.432 49.0158 6.552C52.7598 9.60267 54.6318 13.4853 54.6318 18.2C54.6318 21.736 53.2451 24.96 50.4718 27.872C47.7678 30.7147 43.0878 32.7253 36.4318 33.904C44.0584 34.736 49.6398 36.7467 53.1758 39.936C56.7118 43.056 58.4798 46.8693 58.4798 51.376C58.4798 53.5947 57.9944 55.848 57.0238 58.136C56.0531 60.3547 54.3891 62.4 52.0318 64.272C49.7438 66.144 46.5891 67.6693 42.5678 68.848C38.5464 69.9573 33.4504 70.512 27.2798 70.512H0.86377ZM21.7678 33.8H26.2398C30.8851 33.8 34.2131 32.7253 36.2238 30.576C38.3038 28.4267 39.3438 24.6827 39.3438 19.344C39.3438 13.7973 38.4078 9.84533 36.5358 7.488C34.6638 5.13067 31.6131 3.952 27.3838 3.952H21.7678V33.8ZM21.7678 68.432H26.9678C32.1678 68.432 36.0158 67.0453 38.5118 64.272C41.0771 61.4987 42.3598 57.1653 42.3598 51.272C42.3598 45.7253 41.1464 41.7733 38.7198 39.416C36.2931 37.0587 32.3064 35.88 26.7598 35.88H21.7678V68.432Z" fill="#2B2B2B"/>
<path d="M91.0058 72.384C86.7764 72.384 82.6858 71.6213 78.7338 70.096C74.8511 68.5707 71.3498 66.3173 68.2298 63.336C65.1791 60.2853 62.7524 56.5067 60.9498 52C59.1471 47.4933 58.2458 42.224 58.2458 36.192C58.2458 30.2293 59.1471 24.9947 60.9498 20.488C62.7524 15.9813 65.2138 12.2373 68.3338 9.256C71.4538 6.20533 74.9551 3.91733 78.8378 2.392C82.7898 0.797333 86.8458 0 91.0058 0C95.2351 0 99.2911 0.762667 103.174 2.288C107.126 3.744 110.627 5.99733 113.678 9.048C116.798 12.0293 119.259 15.808 121.062 20.384C122.864 24.8907 123.766 30.16 123.766 36.192C123.766 42.0853 122.864 47.32 121.062 51.896C119.259 56.4027 116.798 60.1813 113.678 63.232C110.627 66.2133 107.126 68.5013 103.174 70.096C99.2911 71.6213 95.2351 72.384 91.0058 72.384ZM91.0058 70.2C94.8191 70.2 97.9044 69.1947 100.262 67.184C102.619 65.104 104.318 61.6027 105.358 56.68C106.467 51.688 107.022 44.8587 107.022 36.192C107.022 27.456 106.467 20.6267 105.358 15.704C104.318 10.712 102.619 7.21067 100.262 5.2C97.9044 3.12 94.8191 2.08 91.0058 2.08C87.2618 2.08 84.2111 3.12 81.8538 5.2C79.4964 7.21067 77.7631 10.712 76.6538 15.704C75.6138 20.6267 75.0938 27.456 75.0938 36.192C75.0938 44.8587 75.6138 51.688 76.6538 56.68C77.7631 61.6027 79.4964 65.104 81.8538 67.184C84.2111 69.1947 87.2618 70.2 91.0058 70.2Z" fill="#2B2B2B"/>
<path d="M122.239 70.512V69.472L124.319 68.64C125.706 68.1547 126.607 67.496 127.023 66.664C127.508 65.832 127.751 64.7573 127.751 63.44V9.048C127.751 7.66134 127.508 6.552 127.023 5.72C126.607 4.888 125.706 4.22933 124.319 3.744L122.239 2.912V1.872H148.655V2.912L146.887 3.64C145.57 4.12533 144.668 4.784 144.183 5.616C143.698 6.37867 143.455 7.45333 143.455 8.84V34.112H168.311V8.84C168.311 7.45333 168.068 6.37867 167.583 5.616C167.167 4.784 166.266 4.12533 164.879 3.64L163.007 2.912V1.872H189.527V2.912L187.447 3.744C186.13 4.22933 185.228 4.888 184.743 5.72C184.258 6.552 184.015 7.66134 184.015 9.048V63.44C184.015 64.7573 184.258 65.832 184.743 66.664C185.228 67.496 186.13 68.1547 187.447 68.64L189.527 69.472V70.512H163.007V69.472L164.879 68.848C166.266 68.2933 167.167 67.6347 167.583 66.872C168.068 66.04 168.311 64.9307 168.311 63.544V36.192H143.455V63.544C143.455 66.1093 144.599 67.8773 146.887 68.848L148.655 69.472V70.512H122.239Z" fill="#2B2B2B"/>
<path d="M220.811 72.384C216.581 72.384 212.491 71.6213 208.539 70.096C204.656 68.5707 201.155 66.3173 198.035 63.336C194.984 60.2853 192.557 56.5067 190.755 52C188.952 47.4933 188.051 42.224 188.051 36.192C188.051 30.2293 188.952 24.9947 190.755 20.488C192.557 15.9813 195.019 12.2373 198.139 9.256C201.259 6.20533 204.76 3.91733 208.643 2.392C212.595 0.797333 216.651 0 220.811 0C225.04 0 229.096 0.762667 232.979 2.288C236.931 3.744 240.432 5.99733 243.483 9.048C246.603 12.0293 249.064 15.808 250.867 20.384C252.669 24.8907 253.571 30.16 253.571 36.192C253.571 42.0853 252.669 47.32 250.867 51.896C249.064 56.4027 246.603 60.1813 243.483 63.232C240.432 66.2133 236.931 68.5013 232.979 70.096C229.096 71.6213 225.04 72.384 220.811 72.384ZM220.811 70.2C224.624 70.2 227.709 69.1947 230.067 67.184C232.424 65.104 234.123 61.6027 235.163 56.68C236.272 51.688 236.827 44.8587 236.827 36.192C236.827 27.456 236.272 20.6267 235.163 15.704C234.123 10.712 232.424 7.21067 230.067 5.2C227.709 3.12 224.624 2.08 220.811 2.08C217.067 2.08 214.016 3.12 211.659 5.2C209.301 7.21067 207.568 10.712 206.459 15.704C205.419 20.6267 204.899 27.456 204.899 36.192C204.899 44.8587 205.419 51.688 206.459 56.68C207.568 61.6027 209.301 65.104 211.659 67.184C214.016 69.1947 217.067 70.2 220.811 70.2Z" fill="#2B2B2B"/>
<path d="M252.044 70.512V69.472L254.228 68.64C255.615 68.1547 256.516 67.496 256.932 66.664C257.348 65.832 257.556 64.7573 257.556 63.44V9.048C257.556 7.66134 257.348 6.552 256.932 5.72C256.516 4.888 255.615 4.22933 254.228 3.744L252.044 2.912V1.872H277.94V2.912L275.652 3.848C274.473 4.264 273.676 4.888 273.26 5.72C272.844 6.552 272.636 7.696 272.636 9.152V63.544C272.636 64.9307 272.844 66.0053 273.26 66.768C273.745 67.5307 274.647 68.1547 275.964 68.64L277.94 69.472V70.512H252.044ZM290.42 70.512V69.472L291.772 69.056C293.159 68.64 293.887 67.9467 293.956 66.976C294.025 66.0053 293.609 64.896 292.708 63.648L272.74 35.256L299.052 8.424C300.023 7.45334 300.543 6.51734 300.612 5.616C300.751 4.71467 300.092 4.02133 298.636 3.536L296.868 2.912V1.872H312.052V2.912L309.348 3.744C307.823 4.22933 306.609 4.81867 305.708 5.512C304.807 6.20534 303.767 7.14133 302.588 8.32L283.972 27.352L308.412 63.024C309.452 64.5493 310.423 65.7973 311.324 66.768C312.295 67.7387 313.647 68.5013 315.38 69.056L316.836 69.472V70.512H290.42Z" fill="#2B2B2B"/>
</svg>
