<svg width="157" height="23" viewBox="0 0 157 23" fill="none" xmlns="http://www.w3.org/2000/svg">
<path d="M0.703995 22V21.68L1.37599 21.424C1.80266 21.2747 2.07999 21.072 2.20799 20.816C2.33599 20.56 2.39999 20.2293 2.39999 19.824V3.08799C2.39999 2.66132 2.33599 2.31999 2.20799 2.06399C2.07999 1.80799 1.80266 1.60532 1.37599 1.45599L0.703995 1.19999V0.879986H8.672V1.19999L7.968 1.48799C7.60533 1.61599 7.36 1.80799 7.232 2.06399C7.104 2.31999 7.04 2.67199 7.04 3.11999V19.856C7.04 20.2827 7.104 20.6133 7.232 20.848C7.38133 21.0827 7.65866 21.2747 8.06399 21.424L8.672 21.68V22H0.703995ZM12.512 22V21.68L12.928 21.552C13.3547 21.424 13.5787 21.2107 13.6 20.912C13.6213 20.6133 13.4933 20.272 13.216 19.888L7.072 11.152L15.168 2.89599C15.4667 2.59732 15.6267 2.30932 15.648 2.03199C15.6907 1.75465 15.488 1.54132 15.04 1.39198L14.496 1.19999V0.879986H19.168V1.19999L18.336 1.45599C17.8667 1.60532 17.4933 1.78665 17.216 1.99999C16.9387 2.21332 16.6187 2.50132 16.256 2.86399L10.528 8.71999L18.048 19.696C18.368 20.1653 18.6667 20.5493 18.944 20.848C19.2427 21.1467 19.6587 21.3813 20.192 21.552L20.64 21.68V22H12.512Z" fill="#2B2B2B"/>
<path d="M20.226 22V21.68L21.026 21.392C21.4527 21.2213 21.7833 21.0187 22.018 20.784C22.2527 20.528 22.4447 20.176 22.594 19.728L29.186 0.815985H31.906L38.402 19.856C38.5727 20.3253 38.7647 20.688 38.978 20.944C39.1913 21.1787 39.522 21.3813 39.97 21.552L40.354 21.68V22H32.226V21.68L32.706 21.52C33.154 21.3493 33.4207 21.1147 33.506 20.816C33.6127 20.496 33.602 20.1227 33.474 19.696L31.97 15.088H24.866L23.33 19.6C23.1807 20.0693 23.1273 20.4427 23.17 20.72C23.234 20.9973 23.49 21.2213 23.938 21.392L24.642 21.68V22H20.226ZM25.09 14.448H31.778L28.546 4.49599L25.09 14.448Z" fill="#2B2B2B"/>
<path d="M40.0815 22V21.68L40.7535 21.424C41.1802 21.2747 41.4575 21.072 41.5855 20.816C41.7135 20.56 41.7775 20.2293 41.7775 19.824V3.08799C41.7775 2.66132 41.7135 2.31999 41.5855 2.06399C41.4575 1.80799 41.1802 1.60532 40.7535 1.45599L40.0815 1.19999V0.879986H48.0495V1.19999L47.3455 1.48799C46.9828 1.61599 46.7375 1.80799 46.6095 2.06399C46.4815 2.31999 46.4175 2.67199 46.4175 3.11999V19.856C46.4175 20.2827 46.4815 20.6133 46.6095 20.848C46.7588 21.0827 47.0362 21.2747 47.4415 21.424L48.0495 21.68V22H40.0815ZM51.8895 22V21.68L52.3055 21.552C52.7322 21.424 52.9562 21.2107 52.9775 20.912C52.9988 20.6133 52.8708 20.272 52.5935 19.888L46.4495 11.152L54.5455 2.89599C54.8442 2.59732 55.0042 2.30932 55.0255 2.03199C55.0682 1.75465 54.8655 1.54132 54.4175 1.39198L53.8735 1.19999V0.879986H58.5455V1.19999L57.7135 1.45599C57.2442 1.60532 56.8708 1.78665 56.5935 1.99999C56.3162 2.21332 55.9962 2.50132 55.6335 2.86399L49.9055 8.71999L57.4255 19.696C57.7455 20.1653 58.0442 20.5493 58.3215 20.848C58.6202 21.1467 59.0362 21.3813 59.5695 21.552L60.0175 21.68V22H51.8895Z" fill="#2B2B2B"/>
<path d="M59.739 22V21.68L60.315 21.456C60.7417 21.2853 61.0297 21.072 61.179 20.816C61.3497 20.56 61.435 20.2187 61.435 19.792V3.08799C61.435 2.63999 61.3497 2.28799 61.179 2.03199C61.0297 1.77599 60.7417 1.57332 60.315 1.42399L59.739 1.19999V0.879986H68.923C71.5257 0.879986 73.403 1.35999 74.555 2.31999C75.707 3.25865 76.283 4.45332 76.283 5.90399C76.283 6.99199 75.8563 7.98399 75.003 8.87999C74.171 9.75465 72.731 10.3733 70.683 10.736C73.0297 10.992 74.747 11.6107 75.835 12.592C76.923 13.552 77.467 14.7253 77.467 16.112C77.467 16.7947 77.3177 17.488 77.019 18.192C76.7203 18.8747 76.2083 19.504 75.483 20.08C74.779 20.656 73.8083 21.1253 72.571 21.488C71.3337 21.8293 69.7657 22 67.867 22H59.739ZM66.171 10.704H67.547C68.9763 10.704 70.0003 10.3733 70.619 9.71199C71.259 9.05065 71.579 7.89865 71.579 6.25599C71.579 4.54932 71.291 3.33332 70.715 2.60799C70.139 1.88265 69.2003 1.51999 67.899 1.51999H66.171V10.704ZM66.171 21.36H67.771C69.371 21.36 70.555 20.9333 71.323 20.08C72.1123 19.2267 72.507 17.8933 72.507 16.08C72.507 14.3733 72.1337 13.1573 71.387 12.432C70.6403 11.7067 69.4137 11.344 67.707 11.344H66.171V21.36Z" fill="#2B2B2B"/>
<path d="M87.475 22.576C86.1737 22.576 84.915 22.3413 83.699 21.872C82.5043 21.4027 81.427 20.7093 80.467 19.792C79.5283 18.8533 78.7817 17.6907 78.227 16.304C77.6723 14.9173 77.395 13.296 77.395 11.44C77.395 9.60532 77.6723 7.99465 78.227 6.60799C78.7817 5.22132 79.539 4.06932 80.499 3.15199C81.459 2.21332 82.5363 1.50932 83.731 1.03999C84.947 0.549319 86.195 0.303986 87.475 0.303986C88.7763 0.303986 90.0243 0.538652 91.219 1.00799C92.435 1.45599 93.5123 2.14932 94.451 3.08799C95.411 4.00532 96.1683 5.16799 96.723 6.57599C97.2777 7.96265 97.555 9.58399 97.555 11.44C97.555 13.2533 97.2777 14.864 96.723 16.272C96.1683 17.6587 95.411 18.8213 94.451 19.76C93.5123 20.6773 92.435 21.3813 91.219 21.872C90.0243 22.3413 88.7763 22.576 87.475 22.576ZM87.475 21.904C88.6483 21.904 89.5977 21.5947 90.323 20.976C91.0483 20.336 91.571 19.2587 91.891 17.744C92.2323 16.208 92.403 14.1067 92.403 11.44C92.403 8.75199 92.2323 6.65065 91.891 5.13599C91.571 3.59999 91.0483 2.52265 90.323 1.90399C89.5977 1.26399 88.6483 0.943985 87.475 0.943985C86.323 0.943985 85.3843 1.26399 84.659 1.90399C83.9337 2.52265 83.4003 3.59999 83.059 5.13599C82.739 6.65065 82.579 8.75199 82.579 11.44C82.579 14.1067 82.739 16.208 83.059 17.744C83.4003 19.2587 83.9337 20.336 84.659 20.976C85.3843 21.5947 86.323 21.904 87.475 21.904Z" fill="#2B2B2B"/>
<path d="M97.0852 22V21.68L97.7252 21.424C98.1519 21.2747 98.4292 21.072 98.5572 20.816C98.7066 20.56 98.7812 20.2293 98.7812 19.824V3.08799C98.7812 2.66132 98.7066 2.31999 98.5572 2.06399C98.4292 1.80799 98.1519 1.60532 97.7252 1.45599L97.0852 1.19999V0.879986H105.213V1.19999L104.669 1.42399C104.264 1.57332 103.987 1.77599 103.837 2.03199C103.688 2.26665 103.613 2.59732 103.613 3.02398V10.8H111.261V3.02398C111.261 2.59732 111.187 2.26665 111.037 2.03199C110.909 1.77599 110.632 1.57332 110.205 1.42399L109.629 1.19999V0.879986H117.789V1.19999L117.149 1.45599C116.744 1.60532 116.467 1.80799 116.317 2.06399C116.168 2.31999 116.093 2.66132 116.093 3.08799V19.824C116.093 20.2293 116.168 20.56 116.317 20.816C116.467 21.072 116.744 21.2747 117.149 21.424L117.789 21.68V22H109.629V21.68L110.205 21.488C110.632 21.3173 110.909 21.1147 111.037 20.88C111.187 20.624 111.261 20.2827 111.261 19.856V11.44H103.613V19.856C103.613 20.6453 103.965 21.1893 104.669 21.488L105.213 21.68V22H97.0852Z" fill="#2B2B2B"/>
<path d="M127.415 22.576C126.114 22.576 124.855 22.3413 123.639 21.872C122.444 21.4027 121.367 20.7093 120.407 19.792C119.468 18.8533 118.722 17.6907 118.167 16.304C117.612 14.9173 117.335 13.296 117.335 11.44C117.335 9.60532 117.612 7.99465 118.167 6.60799C118.722 5.22132 119.479 4.06932 120.439 3.15199C121.399 2.21332 122.476 1.50932 123.671 1.03999C124.887 0.549319 126.135 0.303986 127.415 0.303986C128.716 0.303986 129.964 0.538652 131.159 1.00799C132.375 1.45599 133.452 2.14932 134.391 3.08799C135.351 4.00532 136.108 5.16799 136.663 6.57599C137.218 7.96265 137.495 9.58399 137.495 11.44C137.495 13.2533 137.218 14.864 136.663 16.272C136.108 17.6587 135.351 18.8213 134.391 19.76C133.452 20.6773 132.375 21.3813 131.159 21.872C129.964 22.3413 128.716 22.576 127.415 22.576ZM127.415 21.904C128.588 21.904 129.538 21.5947 130.263 20.976C130.988 20.336 131.511 19.2587 131.831 17.744C132.172 16.208 132.343 14.1067 132.343 11.44C132.343 8.75199 132.172 6.65065 131.831 5.13599C131.511 3.59999 130.988 2.52265 130.263 1.90399C129.538 1.26399 128.588 0.943985 127.415 0.943985C126.263 0.943985 125.324 1.26399 124.599 1.90399C123.874 2.52265 123.34 3.59999 122.999 5.13599C122.679 6.65065 122.519 8.75199 122.519 11.44C122.519 14.1067 122.679 16.208 122.999 17.744C123.34 19.2587 123.874 20.336 124.599 20.976C125.324 21.5947 126.263 21.904 127.415 21.904Z" fill="#2B2B2B"/>
<path d="M137.025 22V21.68L137.697 21.424C138.124 21.2747 138.401 21.072 138.529 20.816C138.657 20.56 138.721 20.2293 138.721 19.824V3.08799C138.721 2.66132 138.657 2.31999 138.529 2.06399C138.401 1.80799 138.124 1.60532 137.697 1.45599L137.025 1.19999V0.879986H144.993V1.19999L144.289 1.48799C143.927 1.61599 143.681 1.80799 143.553 2.06399C143.425 2.31999 143.361 2.67199 143.361 3.11999V19.856C143.361 20.2827 143.425 20.6133 143.553 20.848C143.703 21.0827 143.98 21.2747 144.385 21.424L144.993 21.68V22H137.025ZM148.833 22V21.68L149.249 21.552C149.676 21.424 149.9 21.2107 149.921 20.912C149.943 20.6133 149.815 20.272 149.537 19.888L143.393 11.152L151.489 2.89599C151.788 2.59732 151.948 2.30932 151.969 2.03199C152.012 1.75465 151.809 1.54132 151.361 1.39198L150.817 1.19999V0.879986H155.489V1.19999L154.657 1.45599C154.188 1.60532 153.815 1.78665 153.537 1.99999C153.26 2.21332 152.94 2.50132 152.577 2.86399L146.849 8.71999L154.369 19.696C154.689 20.1653 154.988 20.5493 155.265 20.848C155.564 21.1467 155.98 21.3813 156.513 21.552L156.961 21.68V22H148.833Z" fill="#2B2B2B"/>
</svg>
