<svg width="32" height="22" viewBox="0 0 32 22" fill="none" xmlns="http://www.w3.org/2000/svg">
<g clip-path="url(#clip0)">
<path d="M18.0499 10.8423C18.0499 15.7255 14.0093 19.6842 9.02511 19.6842C4.04097 19.6842 0 15.7246 0 10.8423C0 5.95986 4.04067 2 9.02511 2C14.0096 2 18.0499 5.95896 18.0499 10.8423Z" />
<path d="M27.9505 10.8422C27.9505 15.4388 25.9302 19.1665 23.438 19.1665C20.9457 19.1665 18.9254 15.4388 18.9254 10.8422C18.9254 6.24568 20.9454 2.51794 23.4377 2.51794C25.9299 2.51794 27.9502 6.24448 27.9502 10.8422" />
<path d="M32 10.8423C32 14.9597 31.2896 18.2995 30.4129 18.2995C29.5363 18.2995 28.8262 14.9606 28.8262 10.8423C28.8262 6.72398 29.5366 3.38501 30.4129 3.38501C31.2893 3.38501 32 6.72368 32 10.8423Z" />
</g>
<defs>
<clipPath id="clip0">
<rect width="32" height="17.6842" fill="none" transform="translate(0 2)"/>
</clipPath>
</defs>
</svg>
